<svg id="4ef1610a-9e03-48a5-8dcf-c01d7d13df94" data-name="Layer 1" width="100%" height="661.52" viewBox="0 0 949.8 661.52"><defs><linearGradient id="b4d6f2bc-ae5e-476c-81ed-6eb215cdf2b8" x1="585.6" y1="663" x2="585.6" y2="249" gradientUnits="userSpaceOnUse"><stop offset="0" stop-color="gray" stop-opacity="0.25"></stop><stop offset="0.54" stop-color="gray" stop-opacity="0.12"></stop><stop offset="1" stop-color="gray" stop-opacity="0.1"></stop></linearGradient><linearGradient id="9c7f1c1e-55bc-40cd-85e2-0f597ed8a8ed" x1="266.19" y1="487.11" x2="266.19" y2="486.89" xlink:href="#b4d6f2bc-ae5e-476c-81ed-6eb215cdf2b8"></linearGradient><linearGradient id="9ac4e148-2e83-4d81-ad56-620a328cd147" x1="252.55" y1="605" x2="252.55" y2="271" xlink:href="#b4d6f2bc-ae5e-476c-81ed-6eb215cdf2b8"></linearGradient><linearGradient id="2bd42fb4-2e8b-436b-a616-1dc6bfdc374d" x1="852.66" y1="602" x2="852.66" y2="195" xlink:href="#b4d6f2bc-ae5e-476c-81ed-6eb215cdf2b8"></linearGradient></defs><title>celebration</title><circle cx="95.13" cy="66.03" r="46.49" fill="#3a3636"></circle><path d="M544.88,625.14l-16.33,15.65c-3.74,16-12.93,18.71-12.93,18.71-24.83,4.42-13.61-19-13.61-19l15.75-26.65,1.94-3.29s11.23-3.4,18.71-1.36a6.4,6.4,0,0,1,2.55,1.38C545.65,614.65,544.88,625.14,544.88,625.14Z" transform="translate(-125.1 -119.24)" fill="#444176"></path><path d="M645.57,639.09c-11.57,3.4-19.73-8.84-19-11.91S616,600,616,600l.88-6.36.82-5.89,19,1.36,1.79,3.76,11.14,23.45S657.14,635.69,645.57,639.09Z" transform="translate(-125.1 -119.24)" fill="#444176"></path><path d="M541.14,613.24c-1.79,3.07-16.3,1.52-23.37.56l1.94-3.29s11.23-3.4,18.71-1.36a6.4,6.4,0,0,1,2.55,1.38C541.07,612.19,541.14,613.24,541.14,613.24Z" transform="translate(-125.1 -119.24)" opacity="0.1"></path><path d="M638.51,592.85c-9.73,6.48-20.09,1.58-21.65.77l.82-5.89,19,1.36Z" transform="translate(-125.1 -119.24)" opacity="0.1"></path><path d="M641.15,558.81c-3.4,5.44,0,30.62,0,30.62-11.23,10.21-24.49,2.72-24.49,2.72l-2-61.57s-22.11-50.69-37.76-49.33-41.5,56.13-41.5,56.13,7.14,46.94,5.78,51,0,23.81,0,23.81c-2.38,4.08-27.21,0-27.21,0l-7.14-88.45L516.31,504c5.45-19.32,14.71-40,20.25-51.6,2.75-5.77,4.59-9.29,4.59-9.29l18.1-3.77L618,427.16,639.11,504c4.08,7.48,6.46,24.49,6.46,24.49S644.55,553.37,641.15,558.81Z" transform="translate(-125.1 -119.24)" fill="#565387"></path><g opacity="0.1"><path d="M622.1,592.15l-2-61.57s-22.11-50.69-37.76-49.33a8.52,8.52,0,0,0-2.05.46c15.26,5.07,34.37,48.87,34.37,48.87l2,61.57a24,24,0,0,0,13.53,2.47A24.07,24.07,0,0,1,622.1,592.15Z" transform="translate(-125.1 -119.24)"></path><path d="M519.37,612.22l-7.14-88.45L521.75,504c5.45-19.32,14.71-40,20.25-51.6,2.75-5.77,4.59-9.29,4.59-9.29l18.1-3.77,53.63-11.15-.29-1.07-58.78,12.22-18.1,3.77s-1.84,3.52-4.59,9.29C531,464,521.76,484.72,516.31,504l-9.52,19.73,7.14,88.45s13.56,2.23,21.6,1.74A160.66,160.66,0,0,1,519.37,612.22Z" transform="translate(-125.1 -119.24)"></path></g><path d="M478,338.21s-19.39,1-16.67,21.43l5.44.68,8.16-8.84,4.08-7.48v-1.7Z" transform="translate(-125.1 -119.24)" fill="#ced2df"></path><path d="M478,338.21s-19.39,1-16.67,21.43l5.44.68,8.16-8.84,4.08-7.48v-1.7Z" transform="translate(-125.1 -119.24)" opacity="0.1"></path><path d="M693.71,345.69s16,8.5,11.91,18.37l-5.1,2-6.8-3.74-1-8.84.68-6.12Z" transform="translate(-125.1 -119.24)" fill="#ced2df"></path><path d="M693.71,345.69s16,8.5,11.91,18.37l-5.1,2-6.8-3.74-1-8.84.68-6.12Z" transform="translate(-125.1 -119.24)" opacity="0.1"></path><rect x="431.18" y="138.68" width="55.79" height="42.18" rx="21.09" ry="21.09" fill="#88455e"></rect><path d="M477.87,341.1l-11.91,19-1-3.38L448.78,304a8.11,8.11,0,0,1,.25-5.47c4.09-9.94,18.51-43,23.74-27.55,6.12,18-10.55,37.42-10.55,37.42,1.9,15.76,10.75,27.18,14.23,31.14C477.33,340.57,477.87,341.1,477.87,341.1Z" transform="translate(-125.1 -119.24)" fill="#ec8c9c"></path><path d="M691.16,349.26s18.71-17.69,18-24.83c0,0-17.69-28.57-8.84-35,7-5.12,17.63,20.68,21.75,31.65a10.7,10.7,0,0,1-.71,9L699,369.67Z" transform="translate(-125.1 -119.24)" fill="#ec8c9c"></path><path d="M570.05,299.94s3.4,21.77-6.46,29.94S591.83,338,591.83,338l13.61-12.59s-15.65-14.63-10.89-25.51Z" transform="translate(-125.1 -119.24)" fill="#ec8c9c"></path><path d="M569.37,324.77s14.63,10.89,29.25-1.36l23.81,49.33-1.36,60.21s-49.33,25.51-69.74,9.87-3.4-23.81-3.4-23.81l-4.76-46.26,5.1-29.94s9.18-14.29,9.87-14.29S569.37,324.77,569.37,324.77Z" transform="translate(-125.1 -119.24)" opacity="0.1"></path><path d="M569.37,324.09S584,335,598.63,322.73l23.81,49.33-1.36,60.21s-49.33,25.51-69.74,9.87-3.4-23.81-3.4-23.81l-4.76-46.26,5.1-29.94s9.18-14.29,9.87-14.29S569.37,324.09,569.37,324.09Z" transform="translate(-125.1 -119.24)" fill="#ebf1f6"></path><path d="M569.37,319s-13.87,7.9-28.93,7.51a10.66,10.66,0,0,0-7.69,2.94c-4.29,4.12-11.8,10.64-16.45,10.64-1,0-29.94,5.78-29.94,5.78l-7.65-7.65s-11.4,22.28-16.84,21.26l9.87,12.93s18.71,8.16,43.2-1.7h14.29l7.48,23.13s-3.74,31.3-6.8,38.1,1,20.07,1,20.07l26.87-1s1.36-13.27,3.4-15-7.14-60.21-7.14-60.21-6.12-33,16.33-44.9Z" transform="translate(-125.1 -119.24)" opacity="0.1"></path><path d="M559.24,439.38a88.81,88.81,0,0,0-2.11,12.27l-20.57.78c2.75-5.77,4.59-9.29,4.59-9.29Z" transform="translate(-125.1 -119.24)" opacity="0.1"></path><path d="M477.87,341.1l-11.91,19-1-3.38c4.37-4.34,9.49-13.41,11.53-17.19C477.33,340.57,477.87,341.1,477.87,341.1Z" transform="translate(-125.1 -119.24)" opacity="0.1"></path><path d="M569.37,319s-14.56,7.9-29.61,7.51a10.66,10.66,0,0,0-7.69,2.94c-4.29,4.12-11.8,10.64-16.45,10.64-1,0-29.94,5.78-29.94,5.78L478,338.21s-11.4,22.28-16.84,21.26l9.87,12.93s18.71,8.16,43.2-1.7h14.29L536,393.82s-3.74,31.3-6.8,38.1,1,20.07,1,20.07l26.87-1s1.36-13.27,3.4-15-7.14-60.21-7.14-60.21-6.12-33,16.33-44.9Z" transform="translate(-125.1 -119.24)" fill="#ced2df"></path><path d="M598.63,316.94s13.88,10.58,32.41,11.8a9.85,9.85,0,0,1,5.55,2.15,53.72,53.72,0,0,1,11.71,14c7.48,12.25,25.85,10.89,25.85,10.89s17.86-5.61,18.88-10c0,0,.51,24,11.74,18.2L690,381a10.42,10.42,0,0,1-7.45,3.59c-5.55.22-15.19.29-23.33-1.29-12.25-2.38-21.09-8.16-27.55-3.06,0,0-8.5,26.53-2.72,36.06s16,25.51,11.23,29.6-10.55,3.74-20.07-6.12-10.55-26.53-10.55-26.53l2.38-42.86s-9.18-32.32-18-38.78Z" transform="translate(-125.1 -119.24)" opacity="0.1"></path><path d="M706.12,363.55l-14.81,17.09a10.41,10.41,0,0,1-3.57,2.66h0a10.37,10.37,0,0,1-3.86.91c-5.55.23-15.19.3-23.33-1.29-11.46-2.23-19.94-7.43-26.28-3.92a9.3,9.3,0,0,0-1.28.85s-8.5,26.53-2.72,36.06,16,25.51,11.23,29.6a11,11,0,0,1-2.66,1.73c-4.28,1.93-9.59.26-17.41-7.85-9.52-9.87-10.55-26.53-10.55-26.53L613.26,370s-9.18-32.32-18-38.78l3.89-13.95c2.68,1.82,16.06,10.37,32.6,11.46a9.85,9.85,0,0,1,5.55,2.15,53.76,53.76,0,0,1,11.71,14c7.48,12.25,25.85,10.89,25.85,10.89a99.27,99.27,0,0,0,12.87-5.12l0,0c2.61-1.28,4.91-2.68,6-4a3,3,0,0,0,.65-1.2S694.9,369.33,706.12,363.55Z" transform="translate(-125.1 -119.24)" opacity="0.1"></path><path d="M705.44,363.89,690.64,381a10.41,10.41,0,0,1-2.88,2.32h0a10.38,10.38,0,0,1-4.54,1.25c-5.55.23-15.19.3-23.33-1.29-11.05-2.15-19.34-7.07-25.59-4.26a9.25,9.25,0,0,0-2,1.19s-8.5,26.53-2.72,36.06,16,25.51,11.23,29.6a11.8,11.8,0,0,1-2,1.39c-4.4,2.43-9.84,1-18.09-7.51-9.52-9.87-10.55-26.53-10.55-26.53l2.38-42.86s-9.18-32.32-18-38.78l4.08-14.63.49.34c2.68,1.82,16.06,10.37,32.6,11.46a9.85,9.85,0,0,1,5.55,2.15,53.76,53.76,0,0,1,11.71,14c7.48,12.25,25.85,10.89,25.85,10.89a99.27,99.27,0,0,0,12.87-5.12l0,0c3.09-1.58,5.61-3.31,6-4.89,0,0,0,.31,0,.86C694,350.77,695.5,369,705.44,363.89Z" transform="translate(-125.1 -119.24)" fill="#ced2df"></path><path d="M594.85,300.45h-25a61.18,61.18,0,0,1,.47,12,25.7,25.7,0,0,0,26.42,1.9C594.34,309.91,592.88,304.87,594.85,300.45Z" transform="translate(-125.1 -119.24)" opacity="0.1"></path><circle cx="459.92" cy="172.53" r="24.83" fill="#ec8c9c"></circle><path d="M579.86,287.35c2.77-.33,5.54-1.31,8.27-.76,2.48.5,4.59,2.21,7.07,2.73,4.78,1,9.22-2.52,12.83-5.8l7.8-7.1c1.73-1.57,3.51-3.22,4.4-5.38s.58-5-1.32-6.36c-2.85-2-7.76,0-9.82-2.84-.93-1.28-.79-3-1.27-4.53-1-3.06-4.44-4.73-7.66-4.77s-6.3,1.14-9.38,2a54,54,0,0,1-20,1.91,12.78,12.78,0,0,0-5.47.19,7.65,7.65,0,0,0-4.44,5.27c-1.54,5.44,1.09,14.21,3.73,19.08S574.59,288,579.86,287.35Z" transform="translate(-125.1 -119.24)" opacity="0.1"></path><path d="M579.86,286.67c2.77-.33,5.54-1.31,8.27-.76,2.48.5,4.59,2.21,7.07,2.73,4.78,1,9.22-2.52,12.83-5.8l7.8-7.1c1.73-1.57,3.51-3.22,4.4-5.38s.58-5-1.32-6.36c-2.85-2-7.76,0-9.82-2.84-.93-1.28-.79-3-1.27-4.53-1-3.06-4.44-4.73-7.66-4.77s-6.3,1.14-9.38,2a54,54,0,0,1-20,1.91,12.78,12.78,0,0,0-5.47.19,7.65,7.65,0,0,0-4.44,5.27c-1.54,5.44,1.09,14.21,3.73,19.08S574.59,287.27,579.86,286.67Z" transform="translate(-125.1 -119.24)" fill="#88455e"></path><path d="M536.55,394s5.44.68,8.16,4.08,7.48,4.42,7.48,4.42" transform="translate(-125.1 -119.24)" opacity="0.1"></path><path d="M487.56,349.09S492,359,489.26,360s-1.7,8.16-1.7,8.16" transform="translate(-125.1 -119.24)" opacity="0.1"></path><g opacity="0.1"><path d="M489.09,345.69S518,339.91,519,339.91c4.66,0,12.16-6.52,16.45-10.64a10.5,10.5,0,0,1,4.66-2.59h-.37a10.66,10.66,0,0,0-7.69,2.94c-4.29,4.12-11.8,10.64-16.45,10.64-.81,0-19.31,3.67-26.82,5.16Z" transform="translate(-125.1 -119.24)"></path><path d="M569.41,320.43l0-1.27a72.18,72.18,0,0,1-22.16,7.09A68.48,68.48,0,0,0,569.41,320.43Z" transform="translate(-125.1 -119.24)"></path><path d="M533.66,451.82s-4.08-13.27-1-20.07,6.8-38.1,6.8-38.1L532,370.52H517.67l-.87.34h11.75L536,394s-3.74,31.3-6.8,38.1,1,20.07,1,20.07l26.87-1,0-.21Z" transform="translate(-125.1 -119.24)"></path></g><g opacity="0.1"><path d="M641.15,440.43a11.8,11.8,0,0,1-2,1.39c-4.4,2.43-9.84,1-18.09-7.51-7.56-7.83-9.76-20-10.35-24.61l-.2,3.52s1,16.67,10.55,26.53c8.25,8.54,13.69,9.94,18.09,7.51a11.8,11.8,0,0,0,2-1.39c1.43-1.23,1.51-3.54.76-6.42A3.15,3.15,0,0,1,641.15,440.43Z" transform="translate(-125.1 -119.24)"></path><path d="M700.63,364.4,691,375.53a10.41,10.41,0,0,1-2.88,2.32h0a10.38,10.38,0,0,1-4.54,1.25c-5.55.23-15.19.3-23.33-1.29-11.05-2.15-19.34-7.07-25.59-4.26a9.25,9.25,0,0,0-2,1.19s-5.49,17.14-4.65,28.81c.65-10.91,4.65-23.37,4.65-23.37a9.25,9.25,0,0,1,2-1.19c6.26-2.81,14.54,2.11,25.59,4.26,8.14,1.58,17.77,1.51,23.33,1.29a10.38,10.38,0,0,0,4.54-1.25h0A10.41,10.41,0,0,0,691,381l14.81-17.09A5.83,5.83,0,0,1,700.63,364.4Z" transform="translate(-125.1 -119.24)"></path></g><path d="M265.74,486.89a.77.77,0,0,0,.91.12A3.1,3.1,0,0,1,265.74,486.89Z" transform="translate(-125.1 -119.24)" fill="url(#9c7f1c1e-55bc-40cd-85e2-0f597ed8a8ed)"></path><path d="M300.13,500.32l-.9,4.89-.69,3.74-1.26,6.84-12.22,8.55s-1.1-.94-2.92-2.43c-5-4.12-15.53-12.48-23.26-17a26,26,0,0,0-6.39-2.95Z" transform="translate(-125.1 -119.24)" fill="#ffbdc6"></path><path d="M300.13,500.32l-.9,4.89a38,38,0,0,1-8.06-.41l-28.51.41c-1.35-.08-2.61-.19-3.79-.31a26,26,0,0,0-6.39-2.95Z" transform="translate(-125.1 -119.24)" opacity="0.1"></path><path d="M291.17,504s14.26,2.44,15.07-3.67S298.91,491,292,490.54,243.52,493,243.52,493s-7.33,9.77,19.14,11.4Z" transform="translate(-125.1 -119.24)" fill="#7679b4"></path><path d="M300.13,500.32l-.9,4.89-.69,3.74-1.26,6.84-12.22,8.55s-1.1-.94-2.92-2.43c-5-4.12-15.53-12.48-23.26-17a26,26,0,0,0-6.39-2.95Z" transform="translate(-125.1 -119.24)" opacity="0.1"></path><path d="M300.13,500.32l-.9,4.89a38,38,0,0,1-8.06-.41l-28.51.41c-1.35-.08-2.61-.19-3.79-.31a26,26,0,0,0-6.39-2.95Z" transform="translate(-125.1 -119.24)" opacity="0.1"></path><path d="M291.17,504s14.26,2.44,15.07-3.67S298.91,491,292,490.54,243.52,493,243.52,493s-7.33,9.77,19.14,11.4Z" transform="translate(-125.1 -119.24)" opacity="0.1"></path><rect x="122.69" y="183.95" width="74.53" height="88.38" fill="#a66477"></rect><rect x="122.69" y="183.95" width="74.53" height="88.38" opacity="0.1"></rect><path d="M160.43,454.5c-1.23.31-2.79,1.49-4.54,3.21-7.53,7.44-18.27,24.89-18.27,24.89-13.76-16.38,1.47-29.33,8-33.78,1.58-1.08,2.64-1.66,2.64-1.66Z" transform="translate(-125.1 -119.24)" fill="#ffbdc6"></path><path d="M299.32,331.09s3.67,25.66,16.29,31.77-16.29,17.51-16.29,17.51l-39.51-14.66s22.4-7.33,17.92-28.92Z" transform="translate(-125.1 -119.24)" fill="#ffbdc6"></path><path d="M257,485.45l-.9,4.89-.69,3.74-1.26,6.84-12.22,8.55s-1.1-.94-2.92-2.43c-5-4.12-15.53-12.48-23.26-17a26,26,0,0,0-6.39-2.95Z" transform="translate(-125.1 -119.24)" fill="#ffbdc6"></path><path d="M257,485.45l-.9,4.89a38,38,0,0,1-8.06-.41l-28.51.41c-1.35-.08-2.61-.19-3.79-.31a26,26,0,0,0-6.39-2.95Z" transform="translate(-125.1 -119.24)" opacity="0.1"></path><path d="M248,489.12s14.26,2.44,15.07-3.67-7.33-9.37-14.26-9.77-48.47,2.44-48.47,2.44-7.33,9.77,19.14,11.4Z" transform="translate(-125.1 -119.24)" fill="#7679b4"></path><path d="M255.37,494.09l-1.26,6.84-12.22,8.55s-1.1-.94-2.92-2.43l16.16-13.25Z" transform="translate(-125.1 -119.24)" opacity="0.1"></path><path d="M336,587.33q-.84-.41-1.7-.87l-1.49-1.9-19.68-25V560c-.13,4.15-1.55,37.25-12.61,40.3-11.81,3.26-26.07,4.07-32.58-17.92s-18.33-70.05-30.55-72.9l18.12-14.87s12,14,16.9,27.48c-.18-.86-8.47-39.57-1.63-46.41h59.46s9.16,26.14,15.48,39.1c4.9,10.06,12.25,33.84,17,49.93C367.42,580.63,351,594.63,336,587.33Z" transform="translate(-125.1 -119.24)" fill="#7679b4"></path><path d="M334.34,483c-9.17,5.43-49.49,3.22-62.63,2.34l-3.57-.26c-.39,0,.06-.22.06-.22l.37-3.7,9.77-24.84L330.68,426c-1.06,3.19-1.42,8.08-1.33,13.69C329.61,457.67,334.34,483,334.34,483Z" transform="translate(-125.1 -119.24)" opacity="0.1"></path><path d="M334.34,481.79c-9.17,5.43-49.49,3.22-62.63,2.34l-3.57-.26-.59,0,.65-.17,3.22-.85,6.92-27.7,52.34-30.34c-1.06,3.19-1.42,8.08-1.33,13.69C329.61,456.45,334.34,481.79,334.34,481.79Z" transform="translate(-125.1 -119.24)" fill="#f2f1f2"></path><path d="M329.35,438.46c-10.64,2.45-34.06,9.66-43.06,27-6,11.58-11,16.55-14.57,18.63l-3.57-.26.06-.22,3.22-.85,6.92-27.7,52.34-30.34C329.61,428,329.26,432.85,329.35,438.46Z" transform="translate(-125.1 -119.24)" opacity="0.1"></path><path d="M148.21,447.17l12.22,7.33c-1.23.31-2.79,1.49-4.54,3.21-1-3-7.42-7.12-10.32-8.88C147.15,447.75,148.21,447.17,148.21,447.17Z" transform="translate(-125.1 -119.24)" opacity="0.1"></path><path d="M266,484.34a.73.73,0,0,1-.86-.11A2.94,2.94,0,0,0,266,484.34Z" transform="translate(-125.1 -119.24)" opacity="0.1"></path><path d="M293.61,361.23s-11,1.22-18.74-6.92c0,0-32.58,9.37-43.58,30.55s-85.94,62.72-85.94,62.72,13,7.33,11.81,11l49.28-28.51s17.51-12.63,22.4-15.48,31.77-20.36,37.47,27.29,0,42,0,42,8.15,2.85,20-20,48.47-28.1,48.47-28.1l2-24s7.27-15.92,1.7-22.56a14.1,14.1,0,0,1-3.26-6.89c-.93-6.1,0-16.27,13-24.72,20-13,27.7-23.62,27.7-23.62s.41-7.74-11.81-11.4-61.91-23.62-61.91-23.62l-1.63,6.92,39.1,27.7s-19.55,15.88-35,15.48C304.61,349,307.46,360.82,293.61,361.23Z" transform="translate(-125.1 -119.24)" fill="#565388"></path><path d="M301.16,342.26a80,80,0,0,1-2.25-10L277.32,338a23.8,23.8,0,0,1-.49,12.45,23.22,23.22,0,0,0,24.33-8.2Z" transform="translate(-125.1 -119.24)" opacity="0.1"></path><circle cx="158.13" cy="207.57" r="23.22" fill="#ffbdc6"></circle><path d="M295.57,274c6.44.73,12.57,3.5,18.91,5a9.34,9.34,0,0,0,4.89.19c2.46-.76,4.46-3.34,7-3.26,1.57,0,3,1.12,4.26,2.15a51.11,51.11,0,0,1,5.87,5.21c4.37,4.75,7.09,11.15,11.08,16.31s10.28,9.18,15.95,6.81c-3.85,15-16.49,26.47-30.15,27.4-5.45.37-11-.76-16.31.84a14.28,14.28,0,0,1-4.12,1c-3,0-5.48-2.79-7.38-5.5-4.44-6.38-8-13.62-13-19.43-1.65-1.92-3.6-3.75-5.93-4.1s-4.48.76-6.56,1.84c-3.43,1.78-6.94,3.62-9.6,6.66s-4.34,7.59-3.24,11.71c.59,2.22,1.95,4.22,2,6.55,0,3.7-3.22,6.41-3.87,10a38.6,38.6,0,0,0-.16,4.56c-.29,4.94-3.51,9-6.89,12.09-1.31,1.21-2.77,2.5-3.15,4.37-.26,1.27,0,2.62-.17,3.91-.49,3.21-3.69,4.83-6.52,5.25a18.9,18.9,0,0,1-9.78-1.16c4-1.87,6.39-7.2,5.47-12-1.26-6.61-7.9-11.35-7.34-18.09a20.93,20.93,0,0,1,1.84-5.95,54.45,54.45,0,0,0,3.14-11.28,19.11,19.11,0,0,0-.19-9c-.85-2.59-2.58-4.65-4.06-6.84a38.82,38.82,0,0,1-4.7-9.63,6.75,6.75,0,0,1-.45-3.18,6.59,6.59,0,0,1,2-3.3c3.64-3.81,7.54-7.78,12.38-8.88a27.76,27.76,0,0,1,7-.27,82.24,82.24,0,0,0,12.21-.52c3.34-.39,9-.34,11.82-2.52,2.63-2,4.12-4.55,7.37-5.83A21.57,21.57,0,0,1,295.57,274Z" transform="translate(-125.1 -119.24)" opacity="0.1"></path><path d="M308.48,513.76s13.44,26.47,9.37,34.62" transform="translate(-125.1 -119.24)" opacity="0.1"></path><path d="M332.85,584.56l-19.68-25V560s-1.14-8.08,2.61-5.36c8.21,5.94,21.35,15.68,21.63,17.36S334.75,580.42,332.85,584.56Z" transform="translate(-125.1 -119.24)" opacity="0.1"></path><g opacity="0.1"><path d="M305,349s1.66,6.88-3.71,10.32c8.27-1.42,8.63-7.85,8.38-10.65A26.06,26.06,0,0,1,305,349Z" transform="translate(-125.1 -119.24)"></path><path d="M150.25,445.95s74.94-41.54,85.94-62.72c7.89-15.2,26.9-24.31,37-28.25-7.37,2.47-32.17,11.94-41.49,29.88-11,21.18-85.94,62.72-85.94,62.72Z" transform="translate(-125.1 -119.24)"></path><path d="M319.58,345.77c12.75-4,24.94-13.87,24.94-13.87l-39.1-27.7.89-3.8-3.74-1.5-1.63,6.92,39.1,27.7A94.35,94.35,0,0,1,319.58,345.77Z" transform="translate(-125.1 -119.24)"></path><path d="M319.83,439.63a96.88,96.88,0,0,1,15.33-3.87l.07-.79A103.76,103.76,0,0,0,319.83,439.63Z" transform="translate(-125.1 -119.24)"></path><path d="M272.44,482.3h-.36a.73.73,0,0,1-.86-.11,3,3,0,0,0,.86.11c1.34-.78,3.35-6.86-.86-42.06-4.5-37.58-22.16-34.63-31.83-30.31,9.88-2.72,23.48-.37,27.35,31.94,4.21,35.2,2.2,41.29.86,42.06A9,9,0,0,0,272.44,482.3Z" transform="translate(-125.1 -119.24)"></path><path d="M267.6,483.94a3,3,0,0,1-.86-.11A.73.73,0,0,0,267.6,483.94Z" transform="translate(-125.1 -119.24)"></path></g><path d="M295.57,273.21c6.44.73,12.57,3.5,18.91,5a9.34,9.34,0,0,0,4.89.19c2.46-.76,4.46-3.34,7-3.26,1.57,0,3,1.12,4.26,2.15a51.11,51.11,0,0,1,5.87,5.21c4.37,4.75,7.09,11.15,11.08,16.31s10.28,9.18,15.95,6.81c-3.85,15-16.49,26.47-30.15,27.4-5.45.37-11-.76-16.31.84a14.28,14.28,0,0,1-4.12,1c-3,0-5.48-2.79-7.38-5.5-4.44-6.38-8-13.62-13-19.43-1.65-1.92-3.6-3.75-5.93-4.1s-4.48.76-6.56,1.84c-3.43,1.78-6.94,3.62-9.6,6.66s-4.34,7.59-3.24,11.71c.59,2.22,1.95,4.22,2,6.55,0,3.7-3.22,6.41-3.87,10a38.6,38.6,0,0,0-.16,4.56c-.29,4.94-3.51,9-6.89,12.09-1.31,1.21-2.77,2.5-3.15,4.37-.26,1.27,0,2.62-.17,3.91-.49,3.21-3.69,4.83-6.52,5.25a18.9,18.9,0,0,1-9.78-1.16c4-1.87,6.39-7.2,5.47-12-1.26-6.61-7.9-11.35-7.34-18.09a20.93,20.93,0,0,1,1.84-5.95,54.45,54.45,0,0,0,3.14-11.28,19.11,19.11,0,0,0-.19-9c-.85-2.59-2.58-4.65-4.06-6.84a38.82,38.82,0,0,1-4.7-9.63,6.75,6.75,0,0,1-.45-3.18,6.59,6.59,0,0,1,2-3.3c3.64-3.81,7.54-7.78,12.38-8.88a27.76,27.76,0,0,1,7-.27,82.24,82.24,0,0,0,12.21-.52c3.34-.39,9-.34,11.82-2.52,2.63-2,4.12-4.55,7.37-5.83A21.57,21.57,0,0,1,295.57,273.21Z" transform="translate(-125.1 -119.24)" fill="#a66477"></path><path d="M793.81,527.7s-5.7-9-14.26-.81-14.66,35.43-14.66,35.43-3.26,22,7.74,16.29c0,0,13-18.33,16.7-19.14s7.74-11,7.74-11Z" transform="translate(-125.1 -119.24)" fill="#493545"></path><path d="M854.9,549.69s-7.74-3.67-10.18-.81-10.59,31.36-10.59,31.36-2.44,18.74,5.7,17.92S862.23,568,862.23,568Z" transform="translate(-125.1 -119.24)" fill="#493545"></path><path d="M854.9,549.69s-7.74-3.67-10.18-.81-10.59,31.36-10.59,31.36-2.44,18.74,5.7,17.92S862.23,568,862.23,568Z" transform="translate(-125.1 -119.24)" opacity="0.05"></path><path d="M881.78,494.3l17.51,27.29s-1.22,6.11-11.81,4.89l-36.25,22.81s-3.15,27.77,6.92,25.25c1.63-.41,13-12.22,21.18-11.4L927.4,544.4s11.4-6.52,5.29-28.1-26.31-71.62-26.31-71.62l-31.93,17.86Z" transform="translate(-125.1 -119.24)" fill="#ced2df"></path><path d="M881.78,494.3l17.51,27.29s-1.22,6.11-11.81,4.89l-36.25,22.81s-3.15,27.77,6.92,25.25c1.63-.41,13-12.22,21.18-11.4L927.4,544.4s11.4-6.52,5.29-28.1-26.31-71.62-26.31-71.62l-31.93,17.86Z" transform="translate(-125.1 -119.24)" opacity="0.05"></path><path d="M892.78,534.62c2.44,15.48-11.4,16.7-11.4,16.7s-62.32,1.22-69.65-.41-17.11,2.85-17.11,2.85c-12.63-7.74-2.44-26.88-2.44-26.88s26.07-.81,32.18-2S861.42,522,861.42,522s-2.44-15.07-18.74-53.35c-11.07-26-3-41.3,3.37-48.43a26.82,26.82,0,0,1,5.59-4.92l50.1,2.44a65,65,0,0,0,.28,7.57,80.62,80.62,0,0,0,6.65,25c-2.85,0-21.18,17.11-21.18,17.11S890.33,519.15,892.78,534.62Z" transform="translate(-125.1 -119.24)" fill="#ced2df"></path><path d="M795.84,528.51s26.07-.81,32.18-2,37.06-2.85,37.06-2.85-2.44-15.07-18.74-53.35c-11.07-26-3-41.3,3.37-48.43a26.82,26.82,0,0,1,5.59-4.92l46.42,2.26c0-.48,0-1,0-1.45l-50.1-2.44a26.82,26.82,0,0,0-5.59,4.92c-6.34,7.14-14.44,22.43-3.37,48.43C859,506.93,861.42,522,861.42,522s-31,1.63-37.06,2.85-32.18,2-32.18,2S782,546,794.62,553.77c0,0,.38-.18,1-.44C787.23,544.7,795.84,528.51,795.84,528.51Z" transform="translate(-125.1 -119.24)" opacity="0.1"></path><rect x="720.02" y="146.57" width="25.25" height="63.94" fill="#493545"></rect><rect x="720.02" y="146.57" width="25.25" height="63.94" opacity="0.1"></rect><path d="M884.81,256.43c.87.24,1.85.27,2.44,1.47a9,9,0,0,1,.59,3l1.59,19.76a11,11,0,0,0,.74,3.78c.67,1.34,1.78,1.5,2.65,2.36,1.75,1.74,2.26,6.1,1.78,9.65s-1.69,6.59-2.64,9.8c-1.36,4.6-2.26,9.77-4.17,13.65s-5.38,6-7.62,2.74-1.94-9.84-2.36-15.23c-.7-9-4.21-16.76-4.45-25.82-.2-7.33,1.77-14.17,3-21.12.88-4.77.93-10.56,2.21-14.85C879.64,250.72,881.68,255.57,884.81,256.43Z" transform="translate(-125.1 -119.24)" fill="#493545"></path><path d="M884.81,256.43c.87.24,1.85.27,2.44,1.47a9,9,0,0,1,.59,3l1.59,19.76a11,11,0,0,0,.74,3.78c.67,1.34,1.78,1.5,2.65,2.36,1.75,1.74,2.26,6.1,1.78,9.65s-1.69,6.59-2.64,9.8c-1.36,4.6-2.26,9.77-4.17,13.65s-5.38,6-7.62,2.74-1.94-9.84-2.36-15.23c-.7-9-4.21-16.76-4.45-25.82-.2-7.33,1.77-14.17,3-21.12.88-4.77.93-10.56,2.21-14.85C879.64,250.72,881.68,255.57,884.81,256.43Z" transform="translate(-125.1 -119.24)" opacity="0.1"></path><path d="M777.92,228.34l-9.77,8.15s-1.16-1.36-2.89-3.56c-6.79-8.67-22.4-30.42-11.37-34.31s19.75,17.32,22.83,26.08C777.5,226.92,777.92,228.34,777.92,228.34Z" transform="translate(-125.1 -119.24)" fill="#c77485"></path><path d="M954.28,225.49c-4.07,6.11-9.77,0-9.77,0s-.73-1.09-1.76-2.85c-3.35-5.67-9.92-18.24-5.57-23.22,5-5.69,17.39,13.73,17.77,22.84A5.42,5.42,0,0,1,954.28,225.49Z" transform="translate(-125.1 -119.24)" fill="#c77485"></path><path d="M854.08,291.47s8.15,26.07,5.7,33.8S877.3,342,877.3,342h22.81s8.15-16.7,6.11-21.59-19.55-8.55-19.55-8.55-10.18,0-9.77-27.29Z" transform="translate(-125.1 -119.24)" fill="#c77485"></path><path d="M777.92,228.34l-9.77,8.15s-1.16-1.36-2.89-3.56c3.55-.63,9.06-5.81,11.47-8.23C777.5,226.92,777.92,228.34,777.92,228.34Z" transform="translate(-125.1 -119.24)" opacity="0.1"></path><path d="M954.28,225.49c-4.07,6.11-9.77,0-9.77,0s-.73-1.09-1.76-2.85l.13-.41c2.64,1.89,10.85.28,12.07,0A5.42,5.42,0,0,1,954.28,225.49Z" transform="translate(-125.1 -119.24)" opacity="0.1"></path><path d="M902,425.3c-12.6,5.75-53.54-4.49-56-5.1a26.82,26.82,0,0,1,5.59-4.92l50.1,2.44A65,65,0,0,0,902,425.3Z" transform="translate(-125.1 -119.24)" opacity="0.1"></path><path d="M859.38,313.87s-9.77,3.26-23.62-9.37c0,0-31-30.55-33-37.88l-24-42s-10.18,11-14.26,9.37l26.88,46.84s4.89,9,9.37,11.4c0,0,33.4,42.77,33.8,51.32S849.6,375,849.6,375s4.89,37.06-3.67,43.58c0,0,47.65,12.22,57.83,4.07,0,0-4.48-46,0-50.91,0,0,13.85-16.29,4.48-34.21,0,0-2-9.77,3.26-14.66s28.92-41.14,28.92-41.14,5.7-8.15,5.7-13.44c0,0,10.59-35.84,9-45.21,0,0-9.37,2-12.22,0,0,0-13.85,42-15.48,43.58s-13,34.62-28.1,38.29-17.51,5.29-17.51,5.29,29.32,18.33,15.07,26.47S859.38,313.87,859.38,313.87Z" transform="translate(-125.1 -119.24)" fill="#ffaac4"></path><path d="M877.89,297.74a77.83,77.83,0,0,1-.59-11.57l-22.81,6.92a30.76,30.76,0,0,1,1.43,4.68c2.61,1.15,6.13,3.87,9.16,3.87A20.77,20.77,0,0,0,877.89,297.74Z" transform="translate(-125.1 -119.24)" opacity="0.1"></path><circle cx="739.57" cy="160.01" r="21.18" fill="#c77485"></circle><path d="M839.47,246.62c-4.66.36-9.86,3.58-9.6,8.25.14,2.57,1.9,4.74,2.67,7.2,1.85,5.95-2.27,11.92-5.89,17s-7,11.81-3.9,17.19a42.39,42.39,0,0,0,2.86,3.73c3.83,5.17,3.78,12.15,5.48,18.36a32.21,32.21,0,0,0,37.84,23,20.14,20.14,0,0,1-4.25-13.62c.23-3.56,1.38-7.28,0-10.57-1.78-4.23-7-5.9-9.69-9.6s-2.51-8.83-1.21-13.24,3.55-8.5,4.63-13a39.16,39.16,0,0,1,1-3.89c1.88-5.34,7.5-8.44,13-9.77s11.28-1.41,16.65-3.16,10.59-5.85,11.21-11.48c-4.52,1.81-8.71-2.91-13.07-5.08-7.18-3.56-15.37-.21-22.77.61C856,249.49,848,246,839.47,246.62Z" transform="translate(-125.1 -119.24)" opacity="0.1"></path><path d="M839.06,245.81c-4.66.36-9.86,3.58-9.6,8.25.14,2.57,1.9,4.74,2.67,7.2,1.85,5.95-2.27,11.92-5.89,17s-7,11.81-3.9,17.19a42.39,42.39,0,0,0,2.86,3.73c3.83,5.17,3.78,12.15,5.48,18.36a32.21,32.21,0,0,0,37.84,23,20.14,20.14,0,0,1-4.25-13.62c.23-3.56,1.38-7.28,0-10.57-1.78-4.23-7-5.9-9.69-9.6s-2.51-8.83-1.21-13.24,3.55-8.5,4.63-13a39.16,39.16,0,0,1,1-3.89c1.88-5.34,7.5-8.44,13-9.77s11.28-1.41,16.65-3.16,10.59-5.85,11.21-11.48c-4.52,1.81-8.71-2.91-13.07-5.08-7.18-3.56-15.37-.21-22.77.61C855.61,248.67,847.64,245.14,839.06,245.81Z" transform="translate(-125.1 -119.24)" fill="#493545"></path><path d="M885.65,326.3s8.48,7.57,10.15,10.91" transform="translate(-125.1 -119.24)" opacity="0.1"></path><path d="M904,371.51s-10.59,0-15.48,1.22-16.7,0-16.7,0" transform="translate(-125.1 -119.24)" opacity="0.1"></path><g opacity="0.1"><path d="M896.85,336.68a10.18,10.18,0,0,1-2.93,1.12,11.2,11.2,0,0,0,7.82-1.12c14.26-8.15-15.07-26.47-15.07-26.47h-4.89S911.11,328.54,896.85,336.68Z" transform="translate(-125.1 -119.24)"></path><path d="M955.19,223.79c0-.26-.06-.51-.1-.74a47.84,47.84,0,0,1-5.07.77A22.46,22.46,0,0,0,955.19,223.79Z" transform="translate(-125.1 -119.24)"></path><path d="M850.83,418.55c8.55-6.52,3.67-43.58,3.67-43.58s-14.66-22.81-15.07-31.36-33.8-51.32-33.8-51.32c-4.48-2.44-9.37-11.4-9.37-11.4s-27.7-45.21-31.77-46.84l26.88,46.84s4.89,9,9.37,11.4c0,0,33.4,42.77,33.8,51.32S849.6,375,849.6,375s4.89,37.06-3.67,43.58c0,0,29.29,7.51,46.85,6.83C875.18,424.79,850.83,418.55,850.83,418.55Z" transform="translate(-125.1 -119.24)"></path><path d="M859.62,314.19l-.24-.31a6.44,6.44,0,0,1-.85.19C858.91,314.12,859.27,314.16,859.62,314.19Z" transform="translate(-125.1 -119.24)"></path></g><g opacity="0.1"><path d="M955.09,223l-.25.05c-.43,12.51-9.11,41.9-9.11,41.9,0,5.29-5.7,13.44-5.7,13.44s-23.62,36.25-28.92,41.14-3.26,14.66-3.26,14.66l.05.1c-.16-3.29.24-8.39,3.61-11.51,5.29-4.89,28.92-41.14,28.92-41.14s5.7-8.15,5.7-13.44C946.13,268.26,956.72,232.42,955.09,223Z" transform="translate(-125.1 -119.24)"></path><path d="M903.37,368.45c.61,3.46.2-.2.41,3.26,0,0,10-11.73,7.27-26.23C911.87,358.44,903.37,368.45,903.37,368.45Z" transform="translate(-125.1 -119.24)"></path></g><ellipse cx="469.79" cy="620.44" rx="427.67" ry="41.08" fill="#3a3636" opacity="0.1"></ellipse><path d="M795,134.55h-6.28a4.4,4.4,0,1,0,0-8.79H737.8a4.4,4.4,0,0,0,0,8.79h6.28a4.4,4.4,0,0,0,0,8.79h-8.79a4.4,4.4,0,1,0,0,8.79h50.88a4.4,4.4,0,1,0,0-8.79H795a4.4,4.4,0,0,0,0-8.79Z" transform="translate(-125.1 -119.24)" fill="#dee3f3" opacity="0.5"></path><path d="M500.78,160.19H496a3.35,3.35,0,1,0,0-6.69H457.28a3.35,3.35,0,0,0,0,6.69h4.78a3.35,3.35,0,1,0,0,6.69h-6.69a3.35,3.35,0,1,0,0,6.69h38.72a3.35,3.35,0,1,0,0-6.69h6.69a3.35,3.35,0,0,0,0-6.69Z" transform="translate(-125.1 -119.24)" fill="#dee3f3" opacity="0.5"></path><path d="M302.94,193.88h-6.28a4.4,4.4,0,1,0,0-8.79H245.78a4.4,4.4,0,0,0,0,8.79h6.28a4.4,4.4,0,0,0,0,8.79h-8.79a4.4,4.4,0,0,0,0,8.79h50.88a4.4,4.4,0,1,0,0-8.79h8.79a4.4,4.4,0,0,0,0-8.79Z" transform="translate(-125.1 -119.24)" fill="#dee3f3" opacity="0.5"></path></svg>