<svg xmlns="http://www.w3.org/2000/svg" id="e1675d86-3465-436e-a974-bad49a6f132e" data-name="Layer 1" width="270" style="
    margin: 0px auto;
" viewBox="0 70 190 693.82363"><title>upload image</title><ellipse cx="185" cy="248.5" rx="52" ry="63.5" fill="#2f2e41"></ellipse><path d="M361.5,756.3515l-30,3s-10,18-28,18-12,20,14,18,54-9,55-11S369.5,755.3515,361.5,756.3515Z" transform="translate(-220 -102.8515)" fill="#3f3d56"></path><path d="M361.5,756.3515l-30,3s-10,18-28,18-12,20,14,18,54-9,55-11S369.5,755.3515,361.5,756.3515Z" transform="translate(-220 -102.8515)" opacity="0.1"></path><path d="M319.5,581.3515s34,5,47,21,4-61,4-61l-4-35-27,2-22,45Z" transform="translate(-220 -102.8515)" fill="#3f3d56"></path><path d="M319.5,581.3515s34,5,47,21,4-61,4-61l-4-35-27,2-22,45Z" transform="translate(-220 -102.8515)" opacity="0.1"></path><path d="M431.5,381.3515s16-44,0-45-14,43-14,43Z" transform="translate(-220 -102.8515)" fill="#a0616a"></path><path d="M5,131H37.49213A2.50787,2.50787,0,0,1,40,133.50787v13.98425A2.50787,2.50787,0,0,1,37.49213,150H5a0,0,0,0,1,0,0V131A0,0,0,0,1,5,131Z" fill="#212529"></path><path d="M2.64567,131H35.49213A2.50787,2.50787,0,0,1,38,133.50787v13.98425A2.50787,2.50787,0,0,1,35.49213,150H2.64567A2.64567,2.64567,0,0,1,0,147.35433V133.64567A2.64567,2.64567,0,0,1,2.64567,131Z" fill="#2f2e41"></path><circle cx="30" cy="140" r="2" fill="#212529"></circle><path d="M247.5,256.3515s-25-48-27-25,13,42,13,42Z" transform="translate(-220 -102.8515)" fill="#a0616a"></path><path d="M393.01114,371.441S415,372.8515,417,384.8515s-16,49-16,49l-24-2-3-24Z" transform="translate(-220 -102.8515)" fill="#3f3d56"></path><path d="M365.5,336.3515s8,41-18,24,10,30,10,30,28,7,37-2-13.5-10.5-1-46C406.93773,304.18833,365.5,336.3515,365.5,336.3515Z" transform="translate(-220 -102.8515)" fill="#a0616a"></path><path d="M365.5,336.3515s8,41-18,24,10,30,10,30,28,7,37-2-13.5-10.5-1-46C406.93773,304.18833,365.5,336.3515,365.5,336.3515Z" transform="translate(-220 -102.8515)" opacity="0.1"></path><path d="M277,476.8515s22.5,163.5,29.5,173.5,31,100,31,100l26-9a119.77482,119.77482,0,0,1-1-33c2-18-15-66-15-66l-25-148Z" transform="translate(-220 -102.8515)" fill="#2f2e41"></path><path d="M277,476.8515s22.5,163.5,29.5,173.5,31,100,31,100l26-9a119.77482,119.77482,0,0,1-1-33c2-18-15-66-15-66l-25-148Z" transform="translate(-220 -102.8515)" opacity="0.1"></path><path d="M271.5,469.3515l22,63s-46,83-8,110c0,0,44,48,48,90,0,0,23-2,26-20,0,0-21-46-22-62s-24-35-24-35,44-71,54-83,11-58-14-58S271.5,469.3515,271.5,469.3515Z" transform="translate(-220 -102.8515)" fill="#2f2e41"></path><path d="M357.5,712.3515s-17,21-22,18c0,0-4,43-13,55s19,11,29,0,29-53,29-58S363.5,709.3515,357.5,712.3515Z" transform="translate(-220 -102.8515)" fill="#3f3d56"></path><circle cx="162.5" cy="223.5" r="27" fill="#a0616a"></circle><path d="M353.5,358.3515s1,17,16,21,27-6,27-6l4,8-13,32-24,78s-71,10-77-7,10-65,10-65l23-33,9-22,10-11Z" transform="translate(-220 -102.8515)" fill="#212529"></path><path d="M359.5,362.3515s-15.5-15.5-25.5-15.5-18.5-6.5-18.5-6.5-33,48-53,106-48,76-34,90,36,11,45,26,9,13,15-10-1-86,28-113S359.5,362.3515,359.5,362.3515Z" transform="translate(-220 -102.8515)" fill="#3f3d56"></path><path d="M318.5,343.3515s-40-36-45-51-24-43-28-39-26,13-21,20,17,16,24,41,56,57,56,57Z" transform="translate(-220 -102.8515)" fill="#3f3d56"></path><path d="M391.5,371.3515s-17,1-27,54-9,177,0,187c0,0,9,11,10-9s16-113,12-137,5-76,18-85S391.5,371.3515,391.5,371.3515Z" transform="translate(-220 -102.8515)" fill="#3f3d56"></path><path d="M382.5,415.3515s33,15,32,26-2,33-43-3Z" transform="translate(-220 -102.8515)" fill="#3f3d56"></path><path d="M394.5,415.3515s-14,33,4,39,23-28,23-28,14-38,13-46-21-9-23-4S394.5,415.3515,394.5,415.3515Z" transform="translate(-220 -102.8515)" fill="#3f3d56"></path><ellipse cx="185" cy="251" rx="12" ry="44" fill="#2f2e41"></ellipse><ellipse cx="176" cy="201.5" rx="36" ry="17.5" fill="#2f2e41"></ellipse><path d="M399,319.8515c-19.88226,0-36-7.835-36-17.5,0-3.408,2.01093-6.58606,5.47729-9.2757C363.19122,296.12158,360,300.05456,360,304.3515c0,9.665,16.11774,17.5,36,17.5C408.87158,321.8515,410.04285,319.8515,399,319.8515Z" transform="translate(-220 -102.8515)" opacity="0.1"></path></svg>