<svg id="a02257e8-5dd7-45a0-b624-c586cf0fa49a" data-name="Layer 1" width="918.57304" height="684" viewBox="0 0 918.57304 684"><title>contact details</title><rect xmlns="http://www.w3.org/2000/svg" x="267.83937" y="295.6591" width="642" height="343" transform="translate(165.90278 -392.99173) rotate(31.45906)" fill="#f2f2f2"></rect><path d="M242.28652,792s212-84,468,0" transform="translate(-140.71348 -108)" fill="#2f2e41"></path><path d="M396.41742,727.55273a66.75614,66.75614,0,0,0,.83191,6.70623s18.24329,12.40544,19.70275-1.45946c.94864-9.03408-1.19677-13.1133-2.81675-14.85732l-.02557-.02783a5.61754,5.61754,0,0,1-1.53607-3.805V697.77238L396.5196,702.8805l.72973,13.86491C396.16934,719.62785,396.15473,723.93324,396.41742,727.55273Z" transform="translate(-140.71348 -108)" fill="#ffb9b9"></path><path d="M396.41742,727.55273a66.75614,66.75614,0,0,0,.83191,6.70623s18.24329,12.40544,19.70275-1.45946c.94864-9.03408-1.19677-13.1133-2.81675-14.85732a4.359,4.359,0,0,0-4.48056-.467c-2.91893-1.29895-6.12977.86838-8.786,3.67052A25.79721,25.79721,0,0,0,396.41742,727.55273Z" transform="translate(-140.71348 -108)" opacity="0.05"></path><path d="M409.65477,718.9346s8.027-4.37839,9.48651,15.32436,2.18919,17.51356,2.18919,17.51356,7.29732,17.51356-8.027,15.32437-22.62168-3.64866-21.892-12.40544c.43984-5.278,1.675-12.94184,2.58691-18.1981a26.75764,26.75764,0,0,1,6.86757-13.89107C403.52862,719.79947,406.73584,717.6373,409.65477,718.9346Z" transform="translate(-140.71348 -108)" fill="#2f2e41"></path><path d="M495.38373,743.98175l8.36579,4.03484s26.1359,4.01222,17.8462-10.87058a60.39259,60.39259,0,0,1-5.45114-14.08092,93.79437,93.79437,0,0,1-2.89406-20.87938l-22.11136,3.08471c7.21046,9.60169,6.29714,25.17883,5.18108,33.33682C495.86862,741.89544,495.38373,743.98175,495.38373,743.98175Z" transform="translate(-140.71348 -108)" fill="#ffb9b9"></path><path d="M495.38373,743.98175l8.36579,4.03484s26.1359,4.01222,17.8462-10.87058a60.39259,60.39259,0,0,1-5.45114-14.08092c-5.0772.97706-8.94015,8.28572-8.94015,8.28572-4.09451,14.21471-7.77774,10.66237-10.88419,7.25643C495.86862,741.89544,495.38373,743.98175,495.38373,743.98175Z" transform="translate(-140.71348 -108)" opacity="0.05"></path><path d="M507.68564,732.72866s6.517-12.32453,13.74557-7.11955,3.642,12.64123,27.05514,19.92327,7.94009,22.73448-6.3854,21.554-44.86845-6.74531-44.86845-6.74531-7.94009-22.73448-4.25486-23.2486S501.74855,753.35317,507.68564,732.72866Z" transform="translate(-140.71348 -108)" fill="#2f2e41"></path><path d="M541.13851,764.33073c9.30056.76637,19.0803-5.47809,18.393-11.94579,4.44449,7.30392-6.806,15.577-17.43052,14.70149-14.3255-1.18044-44.86845-6.74531-44.86845-6.74531s-.37365-1.07013-.92032-2.748C497.20153,757.75481,527.02724,763.168,541.13851,764.33073Z" transform="translate(-140.71348 -108)" fill="#fff" opacity="0.3"></path><path d="M391.44929,754.27158c.84143,6.56482,8.12272,7.94474,21.85413,9.90638,6.98314.99759,9.26239-2.09811,9.68173-5.76156.45648,4.69213-.87609,9.93845-9.68173,8.68049-15.32436-2.1892-22.62168-3.64866-21.892-12.40544C391.42283,754.5552,391.43691,754.41094,391.44929,754.27158Z" transform="translate(-140.71348 -108)" fill="#fff" opacity="0.3"></path><path d="M358.07072,469.44027l-2.42235,36.33531s-1.93789,36.81979,13.08071,39.72661,0-46.99367,0-46.99367v-32.944Z" transform="translate(-140.71348 -108)" fill="#fbbebe"></path><path d="M370.667,337.17973,368.72908,341.54s.48447,30.52166,0,32.944-6.78259,21.31672-6.78259,23.2546-4.84471,58.1365-5.81365,61.5278-5.32918,14.04966-1.45341,15.50307,11.14283-4.36024,14.04965,0,5.32918,0,5.32918-1.45341.96894-29.06826,6.78259-36.81979,11.14283-25.19248,12.11177-28.58378,2.42236-52.32285,2.90683-53.29179-1.93789-14.04966-1.93789-14.04966Z" transform="translate(-140.71348 -108)" fill="#5a5c69"></path><path d="M398.2818,388.53364s-5.81365,22.77013-9.68941,27.13037-23.2546,36.81978-17.441,79.93768S387.139,594.91822,387.139,594.91822s1.45342,19.8633-.48447,25.19248,8.72048,90.11158,8.72048,90.11158,15.01859,11.6273,23.2546-2.90683c0,0-1.93789-31.4906,0-34.39743s0-55.22967,0-55.22967,1.45341-130.32266,9.20494-124.99348,31.49061,95.92522,31.49061,95.92522,10.17389,34.88191,9.68941,37.78873S477.735,665.651,477.735,665.651s8.72047,50.385,12.11177,51.35391,24.22354,1.45341,26.16143-3.87577l-5.81365-45.54026s-5.81365-51.83838-8.72048-59.10544-7.75153-110.45935-21.80119-140.981c0,0-5.32918-48.93155-9.20494-56.19861,0,0-2.27369-9.98371.532-19.30377C471,392,403.611,392.4094,398.2818,388.53364Z" transform="translate(-140.71348 -108)" fill="#212529"></path><ellipse cx="286.39434" cy="138.09921" rx="40.69555" ry="51.59614" fill="#212529"></ellipse><path d="M510.679,306.65807l-6.29812,13.56518-74.60851,21.80119s-51.83838,15.01859-57.16756-9.205,20.34777-26.64589,20.34777-26.64589,9.68942-6.7826,21.80119-13.56519c4.05017-2.27217,5.39216-5.94931,5.38246-9.8396a20.35976,20.35976,0,0,0-.32461-3.44943,29.19,29.19,0,0,0-.96894-3.88547,44.52972,44.52972,0,0,0-4.08891-8.98692s31.97508-12.59625,31.49061-5.81365a19.28242,19.28242,0,0,0,.77514,7.24766,28.53029,28.53029,0,0,0,2.6598,5.87663c.54254.935,1.14813,1.904,1.82155,2.93108.87207,1.33229,1.8652,2.75179,2.97951,4.2924,6.29812,8.72048,27.13037,8.72048,27.13037,8.72048C498.0828,287.7637,510.679,306.65807,510.679,306.65807Z" transform="translate(-140.71348 -108)" fill="#fbbebe"></path><path d="M587.7099,384.1734s34.8819,25.677,41.66449,25.19248,46.5092-2.90682,37.30426,6.29813-50.86944,3.39129-50.86944,3.39129L577.536,394.83176Z" transform="translate(-140.71348 -108)" fill="#fbbebe"></path><path d="M447.01956,267.881a27.63276,27.63276,0,0,1-28.17684,7.55291,44.52972,44.52972,0,0,0-4.08891-8.98692s31.97508-12.59625,31.49061-5.81365A19.28242,19.28242,0,0,0,447.01956,267.881Z" transform="translate(-140.71348 -108)" opacity="0.1"></path><circle cx="286.1521" cy="137.61474" r="27.61484" fill="#fbbebe"></circle><path d="M392.46815,326.0369s120.14877-27.13037,120.63324-23.2546,5.32918,11.6273,5.32918,11.6273l-28.09931,31.97508s3.3913,15.50306-3.39129,18.89436-7.75154,29.06825-14.04966,29.55272-79.93769-.48447-80.42216-4.36024,1.93789-6.29812,0-7.26706-4.84471-.96894-2.42235-5.81365,2.42235-25.19248,2.42235-25.19248L369.698,341.54s-3.12264-9.02751,2.55668-10.56964S392.46815,326.0369,392.46815,326.0369Z" transform="translate(-140.71348 -108)" fill="#5a5c69"></path><path d="M514.07033,313.44066h4.36024s13.08071,8.72047,16.472,16.472,15.50307,17.92542,18.40989,20.83224,42.63343,30.52167,42.149,34.39743-11.6273,7.75154-12.11177,12.11177,4.84471,6.29812,1.45342,6.29812-24.22355-12.11177-31.97508-16.472-23.73907-16.95648-25.67695-20.34778-15.0186-9.20495-16.472-11.6273S486.45549,341.54,486.45549,341.54Z" transform="translate(-140.71348 -108)" fill="#5a5c69"></path><circle cx="245.69879" cy="106.85084" r="15.50307" fill="#212529"></circle><circle cx="314.00917" cy="86.50307" r="15.50307" fill="#212529"></circle><ellipse cx="290.02787" cy="119.68932" rx="28.82601" ry="17.68319" fill="#212529"></ellipse><path d="M449.67931,273.75765c-13.28419,5.22744-23.78267,5.84756-29.86762,5.56173a20.36289,20.36289,0,0,1,.32459,3.44943c.70733.02907,1.46795.0436,2.277.0436,6.71962,0,16.75785-1.16757,29.08763-6.12371Z" transform="translate(-140.71348 -108)" fill="#2f2e41"></path><rect x="497.57304" y="310" width="421" height="252" rx="21.43307" fill="#e2e2e2" opacity="0.5"></rect><rect x="542.9663" y="486.75" width="330" height="12" fill="#f7f7f7" opacity="1"></rect><rect x="543.17978" y="455.25" width="330" height="12" fill="#f7f7f7" opacity="1"></rect><rect x="814.17978" y="412.25" width="59" height="12" fill="#f7f7f7" opacity="2"></rect><rect x="657.17978" y="380.25" width="216" height="12" fill="#f7f7f7" opacity="1"></rect><rect x="542.9663" y="518.75" width="165.21348" height="12" fill="#ffffff" opacity="0.3"></rect><rect x="543.17978" y="341.25" width="83" height="83" rx="10.16535" fill="#ffffff"></rect></svg>